<svg width="43" height="43" viewBox="0 0 43 43" fill="none" xmlns="http://www.w3.org/2000/svg">
<path d="M26.4912 27.6429C27.4076 27.6429 28.2865 28.0069 28.9345 28.6549C29.5825 29.3029 29.9465 30.1818 29.9465 31.0982V33.4049L29.9342 33.5707C29.4582 36.8372 26.525 38.4067 21.603 38.4067C16.6995 38.4067 13.7186 36.8556 13.0752 33.6275L13.0537 33.4018V31.0982C13.0537 30.1818 13.4177 29.3029 14.0657 28.6549C14.7137 28.0069 15.5926 27.6429 16.509 27.6429H26.4912ZM26.4912 29.9464H16.509C16.2036 29.9464 15.9106 30.0678 15.6946 30.2838C15.4786 30.4998 15.3572 30.7927 15.3572 31.0982V33.2789C15.7872 35.1218 17.7376 36.1031 21.603 36.1031C25.4669 36.1031 27.3312 35.1341 27.643 33.3142V31.0982C27.643 30.7927 27.5216 30.4998 27.3056 30.2838C27.0896 30.0678 26.7966 29.9464 26.4912 29.9464ZM28.0177 18.427L36.4733 18.4286C37.3897 18.4286 38.2686 18.7926 38.9166 19.4406C39.5646 20.0886 39.9287 20.9675 39.9287 21.8839V24.1906L39.9164 24.3564C39.4403 27.6229 36.5071 29.1924 31.5851 29.1924L31.1014 29.1878C30.6479 28.0946 29.8213 27.1978 28.7686 26.6569C29.5595 26.8105 30.4963 26.8888 31.5851 26.8888C35.449 26.8888 37.3134 25.9198 37.6251 24.1V21.8839C37.6251 21.5785 37.5038 21.2855 37.2878 21.0695C37.0718 20.8535 36.7788 20.7321 36.4733 20.7321H28.4108C28.4108 19.9244 28.2726 19.1473 28.0177 18.427V18.427ZM6.52689 18.4286L14.9825 18.427C14.7657 19.0405 14.6369 19.6817 14.6001 20.3313L14.5894 20.7321H6.52689C6.22142 20.7321 5.92846 20.8535 5.71245 21.0695C5.49645 21.2855 5.3751 21.5785 5.3751 21.8839V24.0646C5.8051 25.9075 7.75546 26.8888 11.6209 26.8888C12.5761 26.8888 13.4084 26.8289 14.1271 26.7122C13.1219 27.2584 12.3344 28.1327 11.8957 29.1893L11.6193 29.1924C6.71732 29.1924 3.7365 27.6413 3.09303 24.4132L3.07153 24.1875V21.8839C3.07153 20.9675 3.43558 20.0886 4.08358 19.4406C4.73159 18.7926 5.61047 18.4286 6.52689 18.4286V18.4286ZM21.5001 15.3571C22.9256 15.3571 24.2928 15.9234 25.3008 16.9314C26.3088 17.9395 26.8751 19.3066 26.8751 20.7321C26.8751 22.1577 26.3088 23.5248 25.3008 24.5328C24.2928 25.5408 22.9256 26.1071 21.5001 26.1071C20.0746 26.1071 18.7074 25.5408 17.6994 24.5328C16.6914 23.5248 16.1251 22.1577 16.1251 20.7321C16.1251 19.3066 16.6914 17.9395 17.6994 16.9314C18.7074 15.9234 20.0746 15.3571 21.5001 15.3571ZM21.5001 17.6607C20.6855 17.6607 19.9043 17.9843 19.3283 18.5603C18.7523 19.1363 18.4287 19.9175 18.4287 20.7321C18.4287 21.5467 18.7523 22.328 19.3283 22.904C19.9043 23.48 20.6855 23.8036 21.5001 23.8036C22.3147 23.8036 23.0959 23.48 23.6719 22.904C24.2479 22.328 24.5715 21.5467 24.5715 20.7321C24.5715 19.9175 24.2479 19.1363 23.6719 18.5603C23.0959 17.9843 22.3147 17.6607 21.5001 17.6607ZM31.4822 6.14286C32.9078 6.14286 34.2749 6.70915 35.2829 7.71716C36.291 8.72517 36.8572 10.0923 36.8572 11.5179C36.8572 12.9434 36.291 14.3105 35.2829 15.3186C34.2749 16.3266 32.9078 16.8929 31.4822 16.8929C30.0567 16.8929 28.6896 16.3266 27.6815 15.3186C26.6735 14.3105 26.1072 12.9434 26.1072 11.5179C26.1072 10.0923 26.6735 8.72517 27.6815 7.71716C28.6896 6.70915 30.0567 6.14286 31.4822 6.14286V6.14286ZM11.518 6.14286C12.9435 6.14286 14.3107 6.70915 15.3187 7.71716C16.3267 8.72517 16.893 10.0923 16.893 11.5179C16.893 12.9434 16.3267 14.3105 15.3187 15.3186C14.3107 16.3266 12.9435 16.8929 11.518 16.8929C10.0924 16.8929 8.72527 16.3266 7.71726 15.3186C6.70925 14.3105 6.14296 12.9434 6.14296 11.5179C6.14296 10.0923 6.70925 8.72517 7.71726 7.71716C8.72527 6.70915 10.0924 6.14286 11.518 6.14286V6.14286ZM31.4822 8.44643C30.6677 8.44643 29.8864 8.77002 29.3104 9.34603C28.7344 9.92203 28.4108 10.7033 28.4108 11.5179C28.4108 12.3324 28.7344 13.1137 29.3104 13.6897C29.8864 14.2657 30.6677 14.5893 31.4822 14.5893C32.2968 14.5893 33.0781 14.2657 33.6541 13.6897C34.2301 13.1137 34.5537 12.3324 34.5537 11.5179C34.5537 10.7033 34.2301 9.92203 33.6541 9.34603C33.0781 8.77002 32.2968 8.44643 31.4822 8.44643V8.44643ZM11.518 8.44643C10.7034 8.44643 9.92214 8.77002 9.34613 9.34603C8.77013 9.92203 8.44653 10.7033 8.44653 11.5179C8.44653 12.3324 8.77013 13.1137 9.34613 13.6897C9.92214 14.2657 10.7034 14.5893 11.518 14.5893C12.3326 14.5893 13.1138 14.2657 13.6898 13.6897C14.2658 13.1137 14.5894 12.3324 14.5894 11.5179C14.5894 10.7033 14.2658 9.92203 13.6898 9.34603C13.1138 8.77002 12.3326 8.44643 11.518 8.44643V8.44643Z" fill="#3DAA62"/>
</svg>
