<svg width="43" height="43" viewBox="0 0 43 43" fill="none" xmlns="http://www.w3.org/2000/svg">
<path d="M21.5 43C18.5885 43 15.8031 42.4331 13.1436 41.2993C10.484 40.1655 8.19548 38.6398 6.27783 36.7222C4.36019 34.8045 2.83447 32.516 1.70068 29.8564C0.566895 27.1969 0 24.4115 0 21.5C0 18.5885 0.566895 15.8031 1.70068 13.1436C2.83447 10.484 4.36019 8.19548 6.27783 6.27783C8.19548 4.36019 10.484 2.83447 13.1436 1.70068C15.8031 0.566895 18.5885 0 21.5 0C24.4115 0 27.1969 0.566895 29.8564 1.70068C32.516 2.83447 34.8045 4.36019 36.7222 6.27783C38.6398 8.19548 40.1655 10.484 41.2993 13.1436C42.4331 15.8031 43 18.5885 43 21.5C43 24.4115 42.4331 27.1969 41.2993 29.8564C40.1655 32.516 38.6398 34.8045 36.7222 36.7222C34.8045 38.6398 32.516 40.1655 29.8564 41.2993C27.1969 42.4331 24.4115 43 21.5 43ZM33.7617 11.0439L31.8301 12.9336C33.2858 14.6693 34.2306 16.6429 34.6646 18.8545C35.0985 21.0661 35.0075 23.2077 34.3916 25.2793C34.7555 25.7552 34.9375 26.2871 34.9375 26.875C34.9375 27.6309 34.6715 28.2677 34.1396 28.7856C33.6077 29.3035 32.9779 29.5625 32.25 29.5625C31.8021 30.1224 31.3822 30.5983 30.9902 30.9902C28.9186 33.0618 26.4341 34.3216 23.5366 34.7695C20.6392 35.2174 17.9447 34.7975 15.4531 33.5098C14.9212 33.3698 14.4733 33.0898 14.1094 32.6699C14.0534 32.6419 13.9554 32.5859 13.8154 32.502C13.6755 32.418 13.5635 32.348 13.4795 32.292C13.0596 31.984 12.4997 31.3752 11.7998 30.4653C11.0999 29.5555 10.75 28.8066 10.75 28.2188C10.75 27.8548 10.883 27.5399 11.1489 27.2739C11.4149 27.008 11.7298 26.875 12.0938 26.875C12.4577 26.875 12.7726 27.008 13.0386 27.2739C13.3045 27.5399 13.4375 27.8548 13.4375 28.2188C13.4935 28.5267 13.6895 28.8626 14.0254 29.2266C14.5853 28.5547 15.2852 28.2188 16.125 28.2188C16.8809 28.2188 17.5177 28.4847 18.0356 29.0166C18.5535 29.5485 18.8125 30.1784 18.8125 30.9062C18.8125 31.2142 18.7565 31.5361 18.6445 31.8721C20.4082 32.376 22.2419 32.39 24.1455 31.9141C26.0492 31.4382 27.7008 30.5003 29.1006 29.1006C29.2126 28.9886 29.4785 28.6667 29.8984 28.1348C29.6745 27.7428 29.5625 27.3229 29.5625 26.875C29.5625 26.2031 29.7795 25.6152 30.2134 25.1113C30.6473 24.6074 31.2002 24.3135 31.8721 24.2295C32.292 22.6618 32.334 21.0451 31.998 19.3794C31.6621 17.7137 30.9622 16.209 29.8984 14.8652L28.0088 16.7969C29.1566 18.3366 29.6605 20.1003 29.5205 22.0879C29.3805 24.0755 28.6107 25.7832 27.2109 27.2109C27.1549 27.2669 27.078 27.3299 26.98 27.3999C26.882 27.4699 26.819 27.5189 26.791 27.5469C26.623 28.1348 26.3011 28.6177 25.8252 28.9956C25.3493 29.3735 24.8034 29.5625 24.1875 29.5625C23.8516 29.5625 23.5156 29.4925 23.1797 29.3525C21.1641 29.7725 19.2744 29.4925 17.5107 28.5127C16.5589 27.9808 15.6421 27.2109 14.7603 26.2031C13.8784 25.1953 13.4375 24.0755 13.4375 22.8438C13.4375 22.4798 13.5705 22.1649 13.8364 21.8989C14.1024 21.633 14.4173 21.5 14.7812 21.5C15.1452 21.5 15.4601 21.633 15.7261 21.8989C15.992 22.1649 16.125 22.4798 16.125 22.8438C16.125 23.4316 16.5519 24.1245 17.4058 24.9224C18.2596 25.7202 18.9105 26.2311 19.3584 26.4551C20.0303 26.735 20.7441 26.875 21.5 26.875C21.5 26.1191 21.766 25.4823 22.2979 24.9644C22.8298 24.4465 23.4596 24.1875 24.1875 24.1875C24.7754 24.1875 25.3073 24.3695 25.7832 24.7334C26.4551 23.8376 26.812 22.8438 26.854 21.752C26.896 20.6602 26.637 19.6383 26.0771 18.6865L24.0615 20.7021C24.1455 20.9821 24.1875 21.248 24.1875 21.5C24.1875 22.2559 23.9285 22.8927 23.4106 23.4106C22.8927 23.9285 22.2629 24.1875 21.521 24.1875C20.7791 24.1875 20.1423 23.9285 19.6104 23.4106C19.0785 22.8927 18.8125 22.2629 18.8125 21.521C18.8125 20.7791 19.0785 20.1423 19.6104 19.6104C20.1423 19.0785 20.7721 18.8125 21.5 18.8125C21.724 18.8125 21.9619 18.8545 22.2139 18.9385L31.9141 9.19629C28.9186 6.64876 25.4473 5.375 21.5 5.375C18.5885 5.375 15.894 6.09587 13.4165 7.5376C10.939 8.97933 8.97933 10.939 7.5376 13.4165C6.09587 15.894 5.375 18.5885 5.375 21.5C5.375 24.4115 6.09587 27.106 7.5376 29.5835C8.97933 32.061 10.939 34.0207 13.4165 35.4624C15.894 36.9041 18.5885 37.625 21.5 37.625C24.4115 37.625 27.106 36.9041 29.5835 35.4624C32.061 34.0207 34.0207 32.061 35.4624 29.5835C36.9041 27.106 37.625 24.4115 37.625 21.5C37.625 17.5247 36.3372 14.0394 33.7617 11.0439Z" fill="#3DAA62"/>
</svg>
