<svg width="43" height="43" viewBox="0 0 43 43" fill="none" xmlns="http://www.w3.org/2000/svg">
<g clip-path="url(#clip0_210_54)">
<path d="M19.3496 4.47133e-07C18.3635 -0.000210951 17.3789 0.0745377 16.4041 0.2236C15.4546 0.368946 14.5173 0.585269 13.6001 0.87075C7.2391 2.8509 2.28077 8.02638 0.60936 14.5168V14.5185C0.449226 15.1403 0.320351 15.7698 0.22322 16.4045V16.4062C0.1742 16.7261 0.13292 17.0486 0.0993802 17.3729V17.3737C-0.00114408 18.3605 -0.0260133 19.3536 0.0249903 20.3442V20.345C0.0415012 20.6727 0.0663058 20.9999 0.0993802 21.3263V21.3271C0.13249 21.6518 0.1742 21.9739 0.22322 22.2938V22.2955C0.320351 22.9302 0.449226 23.5597 0.60936 24.1815V24.1832C2.28077 30.6736 7.2391 35.8491 13.5997 37.8292C13.9024 37.923 14.2077 38.0107 14.5164 38.0903H14.5181C14.8264 38.1698 15.1373 38.2416 15.4521 38.3061H15.4534C15.7677 38.3706 16.0846 38.4278 16.4041 38.4764H16.4058C16.7258 38.5254 17.0483 38.5667 17.3725 38.6002H17.3733C18.36 38.7007 19.3529 38.7256 20.3433 38.6746C20.8413 38.6497 21.3323 38.5994 21.8195 38.537C21.9761 38.5172 22.1334 38.5013 22.2891 38.4773L22.2934 38.4764C23.2435 38.3312 24.1814 38.1149 25.0991 37.8292C27.5006 37.079 29.7321 35.8664 31.6683 34.2598C29.9272 34.9642 28.0283 35.2587 26.1548 35.1413C24.0064 36.0707 21.6904 36.5501 19.3496 36.55C17.179 36.5515 15.0277 36.1416 13.0097 35.3421C13.1512 35.2071 13.3098 35.0953 13.5111 35.0373C16.0193 35.6436 14.9279 32.5411 16.6312 31.8393C17.7719 29.7478 14.1294 29.4141 12.8291 28.653C10.6301 28.3207 10.836 25.6448 8.8387 25.066C7.20341 24.805 7.79724 22.4481 6.5984 22.5741C5.56339 22.7663 5.15274 21.343 4.57611 21.4445C4.43679 21.5916 3.85371 20.4891 3.2272 21.7042C1.72779 21.3723 2.38268 19.8647 2.16553 18.7192C2.2303 16.8604 2.59671 15.0244 3.25042 13.2831C3.61678 13.6142 3.4422 14.672 3.50283 15.3893C4.21663 15.695 3.88123 12.6902 5.3643 12.6201C6.37308 11.4844 7.54354 10.5174 8.7699 9.73563C9.24849 10.0766 10.277 10.0353 11.0842 9.27768C10.185 9.09708 10.121 8.41037 11.3228 8.14076C13.2354 7.3186 10.4602 9.04161 12.0216 9.29015C13.7166 9.78981 12.2787 7.81611 13.0824 7.04469C12.2413 6.47193 13.5911 4.24453 12.12 5.23396C12.6287 4.87018 11.8375 4.18777 12.292 3.92117C12.4799 4.44749 13.4255 5.17032 13.7618 3.95643C14.4283 4.07038 14.5603 3.42151 14.7576 2.77221C15.2397 2.63954 15.7274 2.52806 16.2192 2.4381C16.0541 3.06031 15.4564 4.02136 15.4078 4.644C16.1792 6.8929 17.4813 3.77712 18.853 3.70015C20.0376 3.74057 20.2793 2.94765 20.3132 2.17838C21.8991 2.26567 23.426 2.56968 24.8678 3.05601C24.9908 4.16068 25.4672 5.90347 26.676 5.51862C26.424 5.57452 27.4783 6.61684 26.9331 6.79142C26.6433 8.7419 25.0613 5.4911 24.2589 5.53367C23.0597 5.73577 24.4868 6.32917 24.0538 6.61985C22.9186 7.59466 25.0364 8.61763 24.8652 6.9789C25.0041 8.30029 25.4522 8.25901 26.5233 8.19021C24.4086 8.54711 26.9619 9.30391 26.8961 10.0143C27.5882 10.0123 28.2792 10.066 28.9627 10.1747C29.1205 10.056 29.3213 9.9975 29.5892 10.0302C29.5672 10.1101 29.5549 10.1924 29.5527 10.2753C29.7109 10.3084 29.8691 10.3441 30.0261 10.3828C30.0811 10.3127 30.3292 10.3927 30.598 10.5384L30.6092 10.5419C31.0607 10.6722 31.5018 10.833 31.9336 11.0162C31.9981 10.8317 32.115 10.7659 32.3679 11.0011C32.4496 11.143 32.5334 11.2497 32.6173 11.3314C32.7493 11.3976 32.8787 11.469 33.0086 11.5403C33.3999 11.5988 33.7396 11.2574 33.8471 11.232C34.0483 11.1761 34.3003 11.1925 34.5222 11.2346C34.7286 11.6216 34.9195 12.0185 35.0971 12.4223C34.9569 12.4799 34.7866 12.5285 34.6116 12.5784C36.3832 13.9346 37.7988 15.7586 38.6386 17.8274C38.5021 16.0667 38.1237 14.3333 37.5141 12.676C37.4745 12.568 37.4298 12.4627 37.3881 12.3556C37.3163 12.1707 37.2454 11.9854 37.1684 11.8031C37.1 11.6431 37.0252 11.4866 36.9534 11.3288C36.8962 11.2041 36.8429 11.0781 36.7835 10.9547C36.7005 10.7831 36.6111 10.6154 36.523 10.4469C36.4662 10.3376 36.4133 10.2263 36.3544 10.1183C36.2079 9.84943 36.0551 9.58404 35.896 9.3224C33.3091 5.0654 29.1274 1.8834 24.1815 0.60974L24.1759 0.60802C23.5552 0.448589 22.9269 0.320289 22.2934 0.2236L22.29 0.22274C21.9697 0.17368 21.6482 0.132674 21.3259 0.0997604H21.3233C20.9975 0.0668597 20.6709 0.0421985 20.3438 0.0258004H20.3433C20.0124 0.00881262 19.681 0.000209863 19.3496 4.47133e-07V4.47133e-07ZM12.8239 3.43097C12.6549 3.59695 12.3883 3.76981 12.0783 3.82141C11.6066 4.21486 11.6113 4.10951 11.7666 3.90526C12.1137 3.73526 12.4665 3.57707 12.8244 3.43097H12.8239ZM26.4833 3.69542C26.5401 3.72122 26.5973 3.74616 26.6536 3.77282C26.648 3.83087 26.5538 3.76852 26.4833 3.69542ZM20.6396 3.83388C20.2935 3.8485 20.0368 3.99427 20.1778 4.37052C20.3799 4.56531 20.6744 4.61261 20.9432 4.6139C22.5953 4.40879 21.4007 3.80206 20.6396 3.83388ZM26.4932 4.13617C26.5663 4.14305 26.7383 4.20798 27.0565 4.3688C27.7011 5.1815 26.1759 4.10736 26.4932 4.1366V4.13617ZM11.1345 4.22948C11.0713 4.71882 10.5806 5.44939 10.0745 5.50185C9.67032 5.46444 9.39426 6.10127 9.08165 6.30982C9.06875 6.37002 9.07735 5.96238 9.17195 5.47906C9.79713 5.01865 10.4528 4.60117 11.1345 4.22948V4.22948ZM23.3112 4.73258C23.2901 4.74161 23.2725 4.78074 23.2665 4.86588C23.5696 5.20601 23.4024 4.69259 23.3112 4.73258ZM24.4808 5.0138C24.4563 5.00692 24.4541 5.0611 24.5036 5.23052C24.8291 5.60075 24.5552 5.03401 24.4812 5.0138H24.4808ZM27.7944 5.01724C28.0606 5.01595 28.8053 5.47949 28.6552 5.98474C27.9359 6.5661 28.2683 6.25564 28.1276 5.61193C27.646 5.1858 27.6344 5.0181 27.7944 5.01724V5.01724ZM6.93251 7.44502C6.96734 7.48071 7.00432 7.52414 7.04947 7.59208C6.89467 8.06766 6.7618 7.8776 6.72912 7.65873C6.7962 7.58649 6.86457 7.51597 6.93251 7.44502ZM10.4121 7.82557C10.4594 7.82643 10.5381 7.86427 10.6529 7.97263C10.4017 8.16183 10.2689 7.82385 10.4121 7.82557ZM32.3833 8.12399C32.6886 8.47752 32.9794 8.84333 33.255 9.22049C33.0129 9.64361 32.4255 8.5398 32.3833 8.12399ZM6.84694 8.32781C6.87188 8.32222 6.89854 8.33813 6.92563 8.38414C6.56486 9.4471 6.67064 8.36694 6.84694 8.32824V8.32781ZM30.254 9.42044C30.2665 9.4181 30.2794 9.41839 30.2918 9.4213C30.5085 9.45742 31.3625 9.94332 31.7031 10.2813C31.9112 10.7479 31.0194 9.91666 30.8388 9.97041C30.3335 9.59373 30.1938 9.43893 30.254 9.42044V9.42044ZM6.40189 9.42904C6.44575 9.43764 6.48015 9.48322 6.49004 9.58771C5.83687 10.0414 6.21054 9.39034 6.40189 9.42861V9.42904ZM32.8637 10.2938C32.8968 10.2796 32.9931 10.3333 33.1909 10.52C33.2262 10.993 32.763 10.3368 32.8637 10.2938ZM33.817 11.5795C33.7374 11.5902 33.6561 11.6784 33.5959 11.8822C33.6716 11.9295 33.7477 11.9764 33.8226 12.025C34.2379 12.095 34.0427 11.5502 33.817 11.5799V11.5795ZM4.18782 15.0775C4.15256 15.0775 4.13192 15.1657 4.15256 15.4172C4.5301 15.867 4.29403 15.0762 4.18782 15.0775ZM3.97798 15.7165C3.94272 15.7105 3.88983 15.8145 3.81888 16.1271C4.03216 16.7468 4.08419 15.7341 3.97798 15.7165ZM27.0032 15.8468C26.6039 15.8451 26.2054 15.8811 25.8129 15.9543C25.2337 16.9988 24.4335 17.9323 24.0577 19.2068C23.9459 20.2986 24.3079 21.8079 24.1562 22.9852C24.5088 24.4954 25.9381 25.3601 27.1834 26.0993C28.1208 26.703 29.0977 25.5467 30.1065 25.5334C30.9889 24.2357 32.4018 25.1864 33.1995 25.0905C33.065 25.2972 32.9749 25.5296 32.935 25.7729C33.912 23.9282 33.9933 21.6165 33.0804 19.7267C32.0148 17.4146 29.5531 15.8292 27.0032 15.8468V15.8468ZM2.89739 16.0433C2.14575 15.9655 3.52777 17.2916 3.58238 17.8764C4.97343 18.2518 3.38759 18.6762 4.56407 19.1505C6.33567 19.7882 5.24089 18.3636 4.48925 18.0639C4.78423 17.5909 3.74191 17.2417 3.35878 16.1684C3.15453 16.0936 3.00446 16.054 2.89696 16.0433H2.89739ZM24.8403 16.3387C24.7607 16.3387 24.6726 16.4862 24.6356 16.9248C25.155 17.0495 25.0166 16.3387 24.8407 16.3387H24.8403ZM4.35853 16.6552C4.35363 16.6536 4.34844 16.6531 4.34332 16.6537C4.3382 16.6543 4.33326 16.6559 4.32886 16.6586C4.28844 16.6849 4.28586 16.8113 4.39852 17.086L4.48624 17.1441C4.55848 16.887 4.4355 16.6754 4.35853 16.6552ZM23.727 16.6973C23.5701 16.7842 23.4161 16.8753 23.2669 16.9738C23.2777 17.0056 23.282 17.034 23.3056 17.0727L23.3731 17.1045H23.7588C24.7573 17.0714 24.2146 16.7597 23.727 16.6973V16.6973ZM3.28181 18.0978C3.1799 18.0763 3.16571 18.1933 3.40952 18.6052C4.15385 18.8637 3.50584 18.1451 3.28181 18.0978ZM5.83386 19.1879C5.74098 19.1995 5.65799 19.2988 5.63606 19.5551C6.48832 19.9034 6.11336 19.1531 5.83386 19.1879ZM7.19223 20.5987C7.15439 20.5841 7.11569 20.7535 7.09032 21.2622L7.10537 21.543C7.40766 22.3492 7.30489 20.6434 7.19223 20.5987V20.5987ZM20.7665 21.7339C20.6701 21.724 20.6693 21.7988 20.9367 22.0534C21.6518 22.1953 20.9785 21.7571 20.7665 21.7343V21.7339ZM2.64756 21.8629C2.6854 21.8728 2.71421 21.9558 2.73399 22.1927C2.81139 22.7087 2.77484 23.2282 2.71722 23.7485C2.56934 23.1857 2.45022 22.6158 2.36032 22.0409C2.47986 22.0659 2.57833 21.8444 2.64756 21.8629V21.8629ZM21.8062 21.973C21.7619 21.9734 21.7034 22.0061 21.6308 22.0895C21.9275 22.5556 21.9984 21.9696 21.8062 21.973ZM21.6342 22.4825C21.5658 22.4937 21.4699 22.5384 21.3409 22.6365C21.6966 23.02 21.9292 22.4348 21.6338 22.4825H21.6342ZM21.1341 22.5574C21.098 22.5535 21.043 22.6068 20.9681 22.7681C21.181 23.0957 21.2433 22.569 21.1341 22.5574ZM32.4431 26.1608C32.4066 26.1573 32.3515 26.2102 32.2763 26.3719C32.4896 26.6996 32.5515 26.1728 32.4427 26.1612L32.4431 26.1608Z" fill="#3DAA62"/>
<path d="M28.4355 11.8229C25.674 11.4488 22.7702 12.1247 20.3859 13.9406C15.6172 17.5715 14.6897 24.418 18.321 29.1867C21.7202 33.6501 27.9272 34.7264 32.6185 31.8686L33.5142 33.0451C33.427 33.2479 33.386 33.4489 33.3938 33.634C33.4017 33.8192 33.4583 33.9842 33.5598 34.1175L40.0614 42.6552C40.2473 42.8991 40.5715 43.022 40.9627 42.9967C41.354 42.9714 41.7802 42.7999 42.1478 42.5201C42.3298 42.3816 42.492 42.2205 42.6249 42.0462C42.7579 41.8719 42.8591 41.6878 42.9228 41.5043C42.9864 41.3208 43.0113 41.1416 42.9959 40.9769C42.9805 40.8121 42.9252 40.6652 42.8332 40.5443L36.3316 32.0066C36.23 31.8734 36.086 31.775 35.9096 31.7182C35.7332 31.6614 35.5286 31.6476 35.3099 31.6777L34.4138 30.5008C38.4171 26.7383 39.0307 20.4689 35.632 16.0055C33.8161 13.6207 31.1969 12.197 28.4355 11.8229V11.8229ZM28.113 14.2038C29.2149 14.3525 30.2766 14.7177 31.2369 15.2783C32.1972 15.8388 33.0372 16.5837 33.7086 17.4701C34.3841 18.3532 34.8785 19.3611 35.1635 20.4358C35.4484 21.5105 35.5183 22.631 35.3691 23.7328C35.2198 24.8346 34.8544 25.8961 34.2939 26.8563C33.7333 27.8165 32.9886 28.6565 32.1025 29.3282C31.2194 30.0036 30.2116 30.498 29.1369 30.7829C28.0622 31.0678 26.9418 31.1377 25.8401 30.9884C24.7383 30.8392 23.6769 30.4738 22.7167 29.9133C21.7565 29.3528 20.9165 28.6081 20.2448 27.7221C19.5694 26.839 19.075 25.8312 18.79 24.7565C18.5051 23.6819 18.4352 22.5615 18.5844 21.4597C18.7336 20.358 19.0989 19.2965 19.6594 18.3363C20.2199 17.3761 20.9645 16.5361 21.8505 15.8644C22.7333 15.1885 23.7411 14.6938 24.8159 14.4088C25.8907 14.1238 27.0112 14.0541 28.113 14.2038V14.2038Z" fill="#3DAA62"/>
</g>
<defs>
<clipPath id="clip0_210_54">
<rect width="43" height="43" fill="white"/>
</clipPath>
</defs>
</svg>
